<svg xmlns="http://www.w3.org/2000/svg" version="1.1" xmlns:xlink="http://www.w3.org/1999/xlink" xmlns:svgjs="http://svgjs.dev/svgjs" width="100%" height="100%" viewBox="0 0 1000 600"><rect width="1000" height="600" x="0" y="0" fill="#00214d"/><g><circle r="166.66666666666666" cx="389.8634592692057" cy="412.08560293830635" fill="#fad744" transform="matrix(0.5600440474123277,0,0,0.5600440474123277,0,69.21389777359038)"/><path d="M427.8689236011962 337.08560627916006L447.56027009547137 337.08560627916006L447.56027009547137 487.0856103032596L427.575897611698 487.0856103032596L352.06310011802645 371.39894964939265L352.06310011802645 487.0856103032596L332.1666354311025 487.0856103032596L332.1666354311025 337.08560627916006L352.06310011802645 337.08560627916006L427.8689236011962 453.09459552147496L427.8689236011962 337.08560627916006Z " fill="white" transform="matrix(0.5600440474123277,0,0,0.5600440474123277,0,69.21389777359038)"/><path d="M729.4246865819662 344.7912807491499L747.8524729740009 344.7912807491499L747.8524729740009 485.16604048252L729.15046357018 485.16604048252L658.483193432869 376.90279542931717L658.483193432869 485.16604048252L639.8634509325842 485.16604048252L639.8634509325842 344.7912807491499L658.483193432869 344.7912807491499L729.4246865819662 453.3561711153176L729.4246865819662 344.7912807491499ZM773.3003684677628 434.1605602902816L773.3003684677628 434.1605602902816L773.3003684677628 431.93935389481317Q773.3003684677628 420.6687881103992 776.5636223080189 410.98871579434535Q779.8542984494536 401.28122117711285 786.0243162146437 394.0965782683137Q792.1943339798338 386.93935766069313 800.969470356993 382.9357016886142Q809.7446067341525 378.93204571653524 820.6312603020656 378.93204571653524L820.6312603020656 378.93204571653524Q831.6276030746935 378.93204571653524 840.4301617530314 382.9357016886142Q849.2601427325478 386.93935766069313 855.4850051000953 394.0965782683137Q861.7098674676427 401.28122117711285 864.9731213078987 410.98871579434535Q868.2637974493334 420.6687881103992 868.2637974493334 431.93935389481317L868.2637974493334 431.93935389481317L868.2637974493334 434.1605602902816Q868.2637974493334 445.45854837587416 864.9731213078987 455.0837760895708Q861.7098674676427 464.736426104446 855.4850051000953 471.9210690132452Q849.2601427325478 479.1057119220444 840.5398509577458 483.08194559294463Q831.8195591829437 487.0856015650236 820.823216410316 487.0856015650236L820.823216410316 487.0856015650236Q809.8268736376883 487.0856015650236 801.0517372605291 483.08194559294463Q792.2766008833698 479.1057119220444 786.0791608170009 471.9210690132452Q779.8542984494536 464.736426104446 776.5636223080189 455.0837760895708Q773.3003684677628 445.45854837587416 773.3003684677628 434.1605602902816ZM791.1248642338676 431.93935389481317L791.1248642338676 431.93935389481317L791.1248642338676 434.1605602902816Q791.1248642338676 441.9759161261891 792.9621584128354 448.85891372202343Q794.799452591803 455.7693336190364 798.5014632509171 461.06183774651055Q802.2034739100311 466.35434187398477 807.7976233504703 469.3982173048119Q813.3917727909093 472.442092735639 820.823216410316 472.442092735639L820.823216410316 472.442092735639Q828.1449708250084 472.442092735639 833.6842756630901 469.3982173048119Q839.2235805011719 466.35434187398477 842.8981688591075 461.06183774651055Q846.5727572170429 455.7693336190364 848.4374736971893 448.85891372202343Q850.3296124785143 441.9759161261891 850.3296124785143 434.1605602902816L850.3296124785143 434.1605602902816L850.3296124785143 431.93935389481317Q850.3296124785143 424.23368726362014 848.4374736971893 417.3506896677858Q846.5727572170429 410.4402697707729 842.8433242567501 405.0929210409414Q839.1413135976361 399.74557231111 833.6020087595543 396.67427457910424Q828.0627039214723 393.57555454591983 820.6312603020656 393.57555454591983L820.6312603020656 393.57555454591983Q813.3095058873735 393.57555454591983 807.7702010492917 396.67427457910424Q802.2034739100311 399.74557231111 798.5014632509171 405.0929210409414Q794.799452591803 410.4402697707729 792.9621584128354 417.3506896677858Q791.1248642338676 424.23368726362014 791.1248642338676 431.93935389481317ZM877.88902516303 380.85160679903885L934.2966986874571 380.85160679903885L934.2966986874571 394.53533508717163L877.88902516303 394.53533508717163L877.88902516303 380.85160679903885ZM896.9749467833515 459.2245435675428L896.9749467833515 355.48597820881275L914.826864850635 355.48597820881275L914.826864850635 459.33423277225734Q914.826864850635 464.62673689973155 916.4447806201738 467.34154471641517Q918.0901186908911 470.02893023192024 920.6952373028603 470.9064438696362Q923.3003559148294 471.75653520617345 926.2893867432995 471.75653520617345L926.2893867432995 471.75653520617345Q928.5105931387677 471.75653520617345 930.9786002448438 471.3452006884941Q933.4191850497414 470.9064438696362 934.680610903958 470.6047985566713L934.680610903958 470.6047985566713L934.7628778074939 485.16604048252Q932.6513606167398 485.8515980119856 929.2235729694121 486.45488863791525Q925.7957853220842 487.0856015650236 920.9968826158251 487.0856015650236L920.9968826158251 487.0856015650236Q914.4429526341344 487.0856015650236 908.9310700972312 484.48048295305443Q903.4466098615067 481.8753643410853 900.210778322429 475.7601911782524Q896.9749467833515 469.6450180154195 896.9749467833515 459.2245435675428L896.9749467833515 459.2245435675428ZM956.6458741480349 380.85160679903885L974.580059118854 380.85160679903885L974.580059118854 485.16604048252L956.6458741480349 485.16604048252L956.6458741480349 380.85160679903885ZM955.3021813902822 353.1825049098085L955.3021813902822 353.1825049098085Q955.3021813902822 348.84978132358606 957.9621446046087 345.8607504951162Q960.6221078189351 342.8717196666463 965.8049227416948 342.8717196666463L965.8049227416948 342.8717196666463Q970.9328930620973 342.8717196666463 973.6751231799594 345.8607504951162Q976.4173532978218 348.84978132358606 976.4173532978218 353.1825049098085L976.4173532978218 353.1825049098085Q976.4173532978218 357.32327238778055 973.6751231799594 360.28488091507177Q970.9328930620973 363.2190671411844 965.8049227416948 363.2190671411844L965.8049227416948 363.2190671411844Q960.6221078189351 363.2190671411844 957.9621446046087 360.28488091507177Q955.3021813902822 357.32327238778055 955.3021813902822 353.1825049098085ZM1005.046235728304 470.5225316531354L1080.9237430895535 470.5225316531354L1080.9237430895535 485.16604048252L1005.046235728304 485.16604048252L1005.046235728304 470.5225316531354ZM1078.1266683693336 380.85160679903885L1078.1266683693336 393.49328764238396L1009.1047363027403 485.16604048252L998.218082734827 485.16604048252L998.218082734827 472.0581805191383L1066.7464133802055 380.85160679903885L1078.1266683693336 380.85160679903885ZM998.9859071678284 380.85160679903885L1070.2290456298904 380.85160679903885L1070.2290456298904 395.60480483313796L998.9859071678284 395.60480483313796L998.9859071678284 380.85160679903885ZM1101.079134455841 485.16604048252L1101.079134455841 337.0856141179569L1119.0133194266605 337.0856141179569L1119.0133194266605 464.92838221269636L1117.4776705606575 485.16604048252L1101.079134455841 485.16604048252ZM1189.488633455721 432.1313100030635L1189.488633455721 432.1313100030635L1189.488633455721 434.1605602902816Q1189.488633455721 445.54081527941 1186.7738256390373 455.2208875954639Q1184.0864401235324 464.92838221269636 1178.8762028995939 472.0581805191383Q1173.6659656756556 479.1879788255802 1166.152255152713 483.13679019530196Q1158.6385446297704 487.0856015650236 1148.9036277113591 487.0856015650236L1148.9036277113591 487.0856015650236Q1138.9767546846977 487.0856015650236 1131.4904664629337 483.68523621887437Q1124.0316005423483 480.25744857154655 1118.9036302219458 473.78578549339153Q1113.803082202722 467.34154471641517 1110.759206771895 458.18249612275514Q1107.715331341068 449.02344752909517 1106.5635946915656 437.5335033352522L1106.5635946915656 437.5335033352522L1106.5635946915656 428.676100054557Q1107.715331341068 417.10388895717824 1110.759206771895 407.9448403635182Q1113.803082202722 398.7857917698582 1118.9036302219458 392.2867063905246Q1124.0316005423483 385.76019871001233 1131.4356218605765 382.3598333638631Q1138.8670654799832 378.93204571653524 1148.7116716031087 378.93204571653524L1148.7116716031087 378.93204571653524Q1158.5288554250558 378.93204571653524 1166.152255152713 382.74374558036385Q1173.77565488037 386.5554454441924 1178.9310475019513 393.57555454591983Q1184.0864401235324 400.6230859488259 1186.7738256390373 410.4128474695942Q1189.488633455721 420.175186689184 1189.488633455721 432.1313100030635ZM1171.5544484849017 434.1605602902816L1171.5544484849017 434.1605602902816L1171.5544484849017 432.1313100030635Q1171.5544484849017 424.3433764683346 1170.1010665224346 417.4329565713217Q1168.6476845599677 410.54995897548736 1165.4666976232475 405.2848771491918Q1162.2857106865272 400.04721762407485 1157.075473462589 397.0033421932477Q1151.892658539829 393.95946676242056 1144.269258812172 393.95946676242056L1144.269258812172 393.95946676242056Q1137.5233727222308 393.95946676242056 1132.5599362089001 396.2903623626035Q1127.5964996955693 398.59383566160784 1124.1138674458844 402.48780242897226Q1120.6586574973778 406.40919149751534 1118.464873403088 411.37262801084603Q1116.2985116099767 416.3360645241768 1115.256464165189 421.628568651651L1115.256464165189 421.628568651651L1115.256464165189 444.8552577499445Q1116.792113031192 451.6285661410643 1120.3021675820557 457.82600620743307Q1123.839644434098 464.0508685749804 1129.7628614886805 467.99967994470217Q1135.686078543263 471.9484913144238 1144.4612149204222 471.9484913144238L1144.4612149204222 471.9484913144238Q1151.7007024315787 471.9484913144238 1156.8560950531598 469.0143050883112Q1162.011487674741 466.08011886219856 1165.2473192138184 460.8698816382602Q1168.4557284517173 455.65964441432186 1170.0187996188988 448.8314914208448Q1171.5544484849017 441.9759161261891 1171.5544484849017 434.1605602902816ZM1213.483146987016 337.0856141179569L1231.4173319578351 337.0856141179569L1231.4173319578351 485.16604048252L1213.483146987016 485.16604048252L1213.483146987016 337.0856141179569ZM1255.3295785855944 434.1605602902816L1255.3295785855944 434.1605602902816L1255.3295785855944 431.93935389481317Q1255.3295785855944 420.6687881103992 1258.5928324258502 410.98871579434535Q1261.8835085672854 401.28122117711285 1268.0535263324755 394.0965782683137Q1274.2235440976656 386.93935766069313 1282.9986804748246 382.9357016886142Q1291.773816851984 378.93204571653524 1302.6604704198971 378.93204571653524L1302.6604704198971 378.93204571653524Q1313.656813192525 378.93204571653524 1322.4867941720415 382.9357016886142Q1331.2893528503794 386.93935766069313 1337.514215217927 394.0965782683137Q1343.7390775854742 401.28122117711285 1347.0023314257305 410.98871579434535Q1350.293007567165 420.6687881103992 1350.293007567165 431.93935389481317L1350.293007567165 431.93935389481317L1350.293007567165 434.1605602902816Q1350.293007567165 445.45854837587416 1347.0023314257305 455.0837760895708Q1343.7390775854742 464.736426104446 1337.514215217927 471.9210690132452Q1331.2893528503794 479.1057119220444 1322.5690610755773 483.08194559294463Q1313.8487693007753 487.0856015650236 1302.8524265281476 487.0856015650236L1302.8524265281476 487.0856015650236Q1291.8560837555199 487.0856015650236 1283.0809473783606 483.08194559294463Q1274.3058110012014 479.1057119220444 1268.1083709348325 471.9210690132452Q1261.8835085672854 464.736426104446 1258.5928324258502 455.0837760895708Q1255.3295785855944 445.45854837587416 1255.3295785855944 434.1605602902816ZM1273.1540743516991 431.93935389481317L1273.1540743516991 431.93935389481317L1273.1540743516991 434.1605602902816Q1273.1540743516991 441.9759161261891 1274.991368530667 448.85891372202343Q1276.8286627096345 455.7693336190364 1280.5306733687487 461.06183774651055Q1284.2601063290413 466.35434187398477 1289.8268334683019 469.3982173048119Q1295.4209829087408 472.442092735639 1302.8524265281476 472.442092735639L1302.8524265281476 472.442092735639Q1310.17418094284 472.442092735639 1315.7134857809217 469.3982173048119Q1321.2802129201823 466.35434187398477 1324.927378976939 461.06183774651055Q1328.6019673348746 455.7693336190364 1330.4666838150206 448.85891372202343Q1332.3588225963458 441.9759161261891 1332.3588225963458 434.1605602902816L1332.3588225963458 434.1605602902816L1332.3588225963458 431.93935389481317Q1332.3588225963458 424.23368726362014 1330.4666838150206 417.3506896677858Q1328.6019673348746 410.4402697707729 1324.8725343745818 405.0929210409414Q1321.1705237154677 399.74557231111 1315.631218877386 396.67427457910424Q1310.091914039304 393.57555454591983 1302.6604704198971 393.57555454591983L1302.6604704198971 393.57555454591983Q1295.338716005205 393.57555454591983 1289.7994111671233 396.67427457910424Q1284.2601063290413 399.74557231111 1280.5306733687487 405.0929210409414Q1276.8286627096345 410.4402697707729 1274.991368530667 417.3506896677858Q1273.1540743516991 424.23368726362014 1273.1540743516991 431.93935389481317ZM1414.406347722785 472.442092735639L1414.406347722785 472.442092735639Q1420.7683215962256 472.442092735639 1426.1705149284144 469.83697412366985Q1431.5452859594243 467.2318555117007 1435.0279182091094 462.6523312148707Q1438.5105504587946 458.07280691804067 1438.9767295788313 452.20443446581544L1438.9767295788313 452.20443446581544L1455.9511340083989 452.20443446581544Q1455.4575325871838 461.4457499630113 1449.7262716408513 469.3982173048119Q1443.9950106945191 477.35068464661254 1434.7262728961446 482.23185425640736Q1425.4849573989488 487.0856015650236 1414.406347722785 487.0856015650236L1414.406347722785 487.0856015650236Q1402.642180517156 487.0856015650236 1393.921888742354 482.94483408705156Q1385.1741746663733 478.80406660907954 1379.4429137200411 471.5645790979231Q1373.711652773709 464.3525138879453 1370.8597334511321 454.9466645836777Q1368.0352364297341 445.54081527941 1368.0352364297341 435.0380739279975L1368.0352364297341 435.0380739279975L1368.0352364297341 430.97957335356136Q1368.0352364297341 420.4768320021488 1370.8597334511321 411.07098269788116Q1373.711652773709 401.6651333936136 1379.4429137200411 394.45306818363576Q1385.1741746663733 387.21358067247934 1393.921888742354 383.0728131945073Q1402.642180517156 378.93204571653524 1414.406347722785 378.93204571653524L1414.406347722785 378.93204571653524Q1426.6366940484509 378.93204571653524 1435.7957426421108 383.895482229866Q1444.9547912357712 388.85891874319674 1450.2198730620667 397.38725440974844Q1455.4575325871838 405.9155900763001 1455.9511340083989 416.7199767406775L1455.9511340083989 416.7199767406775L1438.9767295788313 416.7199767406775Q1438.5105504587946 410.2483136625225 1435.3569858232531 405.0654987397628Q1432.23084348889 399.85526151582445 1426.8834947590585 396.70169688028284Q1421.536146029227 393.57555454591983 1414.406347722785 393.57555454591983L1414.406347722785 393.57555454591983Q1406.207079670377 393.57555454591983 1400.6677748322952 396.81138608499737Q1395.1284699942134 400.04721762407485 1391.892638455136 405.47683325744214Q1388.6568069160585 410.9338711919881 1387.2582695559486 417.5426457760362Q1385.859732195839 424.1514203600843 1385.859732195839 430.97957335356136L1385.859732195839 430.97957335356136L1385.859732195839 435.0380739279975Q1385.859732195839 441.8662269214746 1387.2034249535914 448.52984610787996Q1388.5471177113438 455.19346529428526 1391.7829492504213 460.595658626474Q1395.018780789499 465.97042965748403 1400.5580856275806 469.2062611965615Q1406.0973904656626 472.442092735639 1414.406347722785 472.442092735639ZM1475.996836169972 337.0856141179569L1493.9310211407915 337.0856141179569L1493.9310211407915 485.16604048252L1475.996836169972 485.16604048252L1475.996836169972 337.0856141179569ZM1535.8597196429055 380.85160679903885L1557.6604490799104 380.85160679903885L1512.1668514245755 429.52619139109436L1486.6915336296347 455.9612897272867L1485.2655739683466 436.9576350105011L1503.473981950952 415.18432787467464L1535.8597196429055 380.85160679903885ZM1562.3770848826339 485.16604048252L1541.3716021798086 485.16604048252L1504.1595394804176 435.42198614449825L1513.4008549776136 419.51705146089705L1562.3770848826339 485.16604048252Z " fill="Yellow" transform="matrix(0.5600440474123277,0,0,0.5600440474123277,0,69.21389777359038)"/></g></svg>